<svg xmlns="http://www.w3.org/2000/svg" width="240" height="82" viewBox="0 0 292.5 100" role="img" aria-label="AITF"><title>AITF</title>
  <defs><linearGradient id="g" gradientUnits="userSpaceOnUse" x1="8" y1="6" x2="92" y2="94">
      <stop offset="0" stop-color="#3b9eff"></stop><stop offset=".5" stop-color="#0075ff"></stop>
      <stop offset="1" stop-color="#f3f2f2"></stop>
    </linearGradient></defs>
  <path d="M11.5 62 50 14 88.5 62" fill="none" stroke="url(#g)" stroke-width="9" stroke-linejoin="miter" stroke-linecap="butt"></path>
    <line x1="50" y1="14" x2="50" y2="88" stroke="url(#g)" stroke-width="9" stroke-linecap="butt"></line>
    <line x1="29.5" y1="38" x2="70.5" y2="38" stroke="url(#g)" stroke-width="13" stroke-linecap="butt"></line>
    <line x1="50" y1="60" x2="66" y2="60" stroke="url(#g)" stroke-width="13" stroke-linecap="butt"></line>
    <line x1="34" y1="88" x2="66" y2="88" stroke="url(#g)" stroke-width="13" stroke-linecap="butt"></line>
  <g transform="translate(120 21.999999999999996) scale(0.56)"><g fill="#f3f2f2">
    <path fill-rule="evenodd" d="M0 100 34 0h20l34 100H66L60 80H28l-6 20Z M36.3 58h15.4L44 35.3Z"></path>
    <rect x="108" width="22" height="100"></rect>
    <rect x="150" width="80" height="22"></rect><rect x="179" width="22" height="100"></rect>
    <rect x="242" width="22" height="100"></rect><rect x="242" width="66" height="22"></rect><rect x="242" y="39" width="54" height="22"></rect>
  </g></g>
</svg>